<?xml version="1.0" encoding="iso-8859-1"?>
<!-- Generator: Adobe Illustrator 16.0.0, SVG Export Plug-In . SVG Version: 6.00 Build 0)  -->
<!DOCTYPE svg PUBLIC "-//W3C//DTD SVG 1.1//EN" "http://www.w3.org/Graphics/SVG/1.1/DTD/svg11.dtd">
<svg version="1.1" id="Capa_1" xmlns="http://www.w3.org/2000/svg" xmlns:xlink="http://www.w3.org/1999/xlink" x="0px" y="0px"
	 width="20.908px" height="20.908px" viewBox="0 0 20.908 20.908" style="enable-background:new 0 0 20.908 20.908;"
	 xml:space="preserve">
<g>
	<path d="M4.664,0.67l16.244,16.245l-3.629,3.629L1.034,4.3L4.664,0.67z M16.825,8.354c2.254,0,4.082-1.827,4.082-4.082
		c0-2.254-1.828-4.082-4.082-4.082c-2.255,0-4.082,1.828-4.082,4.082C12.743,6.527,14.57,8.354,16.825,8.354z M4.082,12.554
		C1.828,12.554,0,14.38,0,16.636c0,2.254,1.828,4.082,4.082,4.082s4.082-1.828,4.082-4.082C8.164,14.38,6.336,12.554,4.082,12.554z"
		/>
</g>
<g>
</g>
<g>
</g>
<g>
</g>
<g>
</g>
<g>
</g>
<g>
</g>
<g>
</g>
<g>
</g>
<g>
</g>
<g>
</g>
<g>
</g>
<g>
</g>
<g>
</g>
<g>
</g>
<g>
</g>
</svg>
